<svg width="28" height="28" viewBox="0 0 28 28" fill="none" xmlns="http://www.w3.org/2000/svg">
<g id="Linked-in">
<path id="Vector" d="M7.29853 24.9662H2.26753V10.7901H7.29853V24.9662ZM4.78032 8.85635C3.17157 8.85635 1.8667 7.69041 1.8667 6.28276C1.8667 5.60661 2.17367 4.95815 2.72008 4.48005C3.26649 4.00194 4.00758 3.73334 4.78032 3.73334C5.55307 3.73334 6.29416 4.00194 6.84057 4.48005C7.38698 4.95815 7.69395 5.60661 7.69395 6.28276C7.69395 7.69041 6.38853 8.85635 4.78032 8.85635ZM26.1279 24.9662H21.1078V18.0654C21.1078 16.4207 21.0699 14.3116 18.4921 14.3116C15.8764 14.3116 15.4755 16.0984 15.4755 17.9469V24.9662H10.4499V10.7901H15.2751V12.7238H15.3455C16.0172 11.61 17.6579 10.4346 20.1057 10.4346C25.1974 10.4346 26.1334 13.3684 26.1334 17.1791V24.9662H26.1279Z" fill="white"/>
</g>
</svg>
